<svg xmlns="http://www.w3.org/2000/svg" viewBox="0 0 512 512">
    <rect width="512" height="512" fill="#ff4757" rx="64"/>
    <!-- Font Awesome Dice Icon -->
    <path fill="white" d="M400 128H112c-8.8 0-16 7.2-16 16v224c0 8.8 7.2 16 16 16h288c8.8 0 16-7.2 16-16V144c0-8.8-7.2-16-16-16zM272 288c-17.7 0-32-14.3-32-32s14.3-32 32-32 32 14.3 32 32-14.3 32-32 32zm-96-96c17.7 0 32 14.3 32 32s-14.3 32-32 32-32-14.3-32-32 14.3-32 32-32zm192 192H144c-8.8 0-16-7.2-16-16V144c0-8.8 7.2-16 16-16h224c8.8 0 16 7.2 16 16v224c0 8.8-7.2 16-16 16z"/>
</svg>
